# xmcd
#
# Track frame offsets:
#  150
#  13219
#  30452
#  43043
#  60162
#  73374
#  88432
#  101709
#  118260
#  129388
#
# Disc length: 1919 seconds
#
# Revision: 0
# Processed by: cddbd v1.5.1PL2 Copyright (c) Steve Scherf et al.
# Submitted via: Collectorz.com_Music_Collector 6.9
#
DISCID=8e077d0a
DTITLE=Alan Jackson - Don't Rock The Jukebox
DYEAR=1991
DGENRE=Country
TTITLE0=Don't Rock The Jukebox
TTITLE1=That's All I Need To Know
TTITLE2=Dallas
TTITLE3=Midnight In Montgomery
TTITLE4=Love's Got A Hold On You
TTITLE5=Someday
TTITLE6=Just Playin' Possum
TTITLE7=From A Distance
TTITLE8=Walkin' The Floor Over Me
TTITLE9=Working Class Hero
EXTD=
EXTT0=
EXTT1=
EXTT2=
EXTT3=
EXTT4=
EXTT5=
EXTT6=
EXTT7=
EXTT8=
EXTT9=
PLAYORDER=
